<?xml version="1.0" standalone="no"?>
<!DOCTYPE svg PUBLIC "-//W3C//DTD SVG 20010904//EN"
 "http://www.w3.org/TR/2001/REC-SVG-20010904/DTD/svg10.dtd">
<svg version="1.0" xmlns="http://www.w3.org/2000/svg"
 width="200.000000pt" height="200.000000pt" viewBox="0 0 200.000000 200.000000"
 preserveAspectRatio="xMidYMid meet">
<metadata>
Created by potrace 1.11, written by Peter Selinger 2001-2013
</metadata>
<g transform="translate(0.000000,200.000000) scale(0.100000,-0.100000)"
fill="#000000" stroke="none">
<path d="M874 1655 c-101 -45 -185 -213 -153 -304 9 -24 5 -32 -26 -65 -35
-38 -82 -118 -89 -153 -1 -10 -6 -26 -9 -35 -4 -10 -10 -26 -13 -35 -13 -35
-12 -223 1 -267 27 -90 95 -186 131 -186 26 0 40 -39 42 -117 3 -92 -9 -114
-77 -138 -23 -8 -42 -14 -44 -13 -4 2 -52 -13 -77 -25 -32 -14 -102 -70 -141
-111 -31 -33 -83 -132 -93 -178 l-6 -28 800 0 c633 0 800 3 801 13 3 31 -11
161 -21 196 -5 17 -9 34 -9 36 -1 3 -2 7 -2 10 -1 3 -3 10 -4 15 -1 6 -4 12
-5 15 -3 6 -7 22 -9 34 0 5 -17 25 -36 44 -48 48 -105 64 -217 61 -90 -2 -94
-1 -126 28 -28 24 -61 43 -92 53 -23 7 -139 18 -200 19 -75 1 -75 1 -78 29 -4
35 11 53 64 78 56 27 157 120 178 163 24 51 31 106 31 241 -1 226 -70 357
-210 396 -22 7 -52 12 -67 13 -36 2 -40 7 -44 70 -6 97 -47 146 -127 152 -23
2 -56 -3 -73 -11z"/>
</g>
</svg>
